PathFileType	4	(X/Y/Z)	Data\static.trc
DataRate	CameraRate	NumFrames	NumMarkers	Units	OrigDataRate	OrigDataStartFrame	OrigNumFrames
250.000000	250.000000	5	38	mm	250.000000	0	483
Frame#	Time	RASI			LASI			RPSI			LPSI			RAIC			LAIC			RLFC			RMFC			RTH1			RTH2			RTH3			RLMAL			RMMAL			RTB1			RTB2			RTB3			RCAL			RMT1			RMT5			LLFC			LMFC			LTH1			LTH2			LTH3			LLMAL			LMMAL			LTB1			LTB2			LTB3			LCAL			LMT1			LMT5			C7			T10			CLAV			STRN			RACR			LACR			
		X1	Y1	Z1	X2	Y2	Z2	X3	Y3	Z3	X4	Y4	Z4	X5	Y5	Z5	X6	Y6	Z6	X7	Y7	Z7	X8	Y8	Z8	X9	Y9	Z9	X10	Y10	Z10	X11	Y11	Z11	X12	Y12	Z12	X13	Y13	Z13	X14	Y14	Z14	X15	Y15	Z15	X16	Y16	Z16	X17	Y17	Z17	X18	Y18	Z18	X19	Y19	Z19	X20	Y20	Z20	X21	Y21	Z21	X22	Y22	Z22	X23	Y23	Z23	X24	Y24	Z24	X25	Y25	Z25	X26	Y26	Z26	X27	Y27	Z27	X28	Y28	Z28	X29	Y29	Z29	X30	Y30	Z30	X31	Y31	Z31	X32	Y32	Z32	X33	Y33	Z33	X34	Y34	Z34	X35	Y35	Z35	X36	Y36	Z36	X37	Y37	Z37	X38	Y38	Z38	

1	0	522.0675048828127	1042.857421875	405.617126464844	516.0073242187502	1059.171020507813	188.5961303710938	344.7112121582032	1081.543701171875	356.669647216797	344.339324951172	1086.586181640625	260.944549560547	448.6422119140627	1113.323120117188	457.4237976074221	455.1620788574221	1124.880737304688	159.7558135986329	418.7941894531252	551.5449218750002	490.0539245605471	405.4687194824221	520.986755371094	369.2994689941407	441.4744262695315	805.7537231445317	501.015075683594	487.9714965820315	713.544616699219	490.5460510253909	424.655700683594	628.8316040039065	491.7701416015627	366.650604248047	96.31224060058599	507.422302246094	396.3149414062502	105.505485534668	417.1119689941409	434.9786682128909	397.2525939941409	427.0154113769534	443.4707336425784	331.495086669922	482.951110839844	427.369812011719	258.5495910644532	441.5929870605471	312.4712524414064	44.69241333007814	454.888122558594	530.9884033203127	47.07388305664064	445.888854980469	519.7384033203127	43.46021270751955	554.957458496094	417.6701660156252	545.7597656250002	108.9327239990235	409.309509277344	520.0881958007815	231.7148895263673	435.9175109863284	832.2944946289067	102.1657028198243	475.2106933593752	741.0219726562502	105.6143264770508	411.0073242187502	660.0947875976565	110.8227539062501	372.0498657226564	100.0236053466797	88.03240966796878	400.2002258300784	102.7548217773438	178.8167572021485	438.2939453125002	396.1658935546877	169.8021545410157	449.2940368652346	324.6472473144532	121.3076782226563	424.2118225097659	258.2622985839845	166.567855834961	318.1036682128907	44.44155502319337	134.3320007324219	540.7525024414065	42.90791320800783	162.1030731201172	533.1526489257815	41.28053665161134	52.37978744506839	363.2486877441407	1543.874267578126	312.6879882812501	336.0084838867189	1271.517578125	306.7933959960939	498.6869812011721	1498.1865234375	307.4981994628907	566.4761962890627	1315.627197265625	307.5507202148439	363.9922485351564	1536.671020507813	483.5084533691409	356.5577087402345	1539.784057617188	141.2401733398438	
2	0.004	522.1216430664065	1042.866455078125	405.6092834472659	516.0756835937502	1059.203979492188	188.6299438476563	344.460662841797	1081.275024414063	356.6434631347657	344.3983154296876	1086.59521484375	260.9367065429689	448.6618347167971	1113.391479492188	457.3796691894534	455.238464355469	1124.9140625	159.7735900878907	418.7717895507815	551.5227050781252	490.0318298339846	405.4928283691409	520.9898071289065	369.2886657714845	441.4782409667971	805.7587890625005	500.9926757812502	488.0249328613284	713.5212402343752	490.5718688964846	424.6708068847659	628.8395996093752	491.7884521484377	366.5793762207032	96.31285095214849	507.3375549316409	396.3281250000002	105.4782028198243	417.0860290527346	434.9634399414065	397.2518005371096	426.9938659667971	443.4447326660159	331.482879638672	482.9271240234377	427.420349121094	258.649627685547	441.5933532714846	312.5116577148439	44.63045883178712	454.7071228027346	531.0067138671877	47.07643127441408	445.9055480957034	519.7379150390627	43.4503631591797	554.9651489257815	417.7426757812502	545.8008422851565	108.9750595092774	409.3213806152346	520.0811767578127	231.7605285644532	435.9721374511721	832.3588256835942	102.1620864868165	475.2559204101565	741.0322875976565	105.5636367797852	411.0341796875002	660.1296997070315	110.8013153076172	372.0725708007814	100.0164413452149	88.05175781250003	400.2019348144534	102.7540512084962	178.8522186279297	438.3153991699221	396.1523132324221	169.7759704589844	449.286071777344	324.6447143554689	121.2913055419922	424.2269287109377	258.2769165039064	166.5916137695313	318.114715576172	44.42874145507814	134.3243408203126	541.9309692382815	43.26520156860353	162.4264678955079	533.1978149414065	41.29208374023439	52.41642379760745	363.184051513672	1543.860229492188	312.5997924804689	335.9976806640626	1271.5107421875	306.7658081054689	498.6714477539065	1498.26611328125	307.4412841796876	566.4863891601565	1315.747802734375	307.5517578125001	364.0131225585939	1537.025878906251	483.4824829101565	356.5223999023439	1539.764038085938	141.144760131836	
3	0.008	522.1404418945315	1042.868774414063	405.6346435546877	516.1229248046877	1059.207397460938	188.6507110595704	344.7939453125001	1081.541870117188	356.6194763183595	344.3933715820314	1086.594116210938	260.9389648437501	448.7264709472659	1113.402221679688	457.3757019042971	455.2737121582034	1124.936401367188	159.7379150390626	418.7624816894534	551.5166015625002	489.9882507324221	405.4756469726565	520.9807128906252	369.2642211914064	441.4867858886721	805.7590942382817	500.9680175781252	487.840026855469	713.341979980469	490.4389343261721	424.6361389160159	628.836120605469	491.7630615234377	366.6893310546876	96.32139587402349	507.4629516601565	396.335876464844	105.4944915771485	417.099304199219	434.9761047363284	397.2496032714846	426.9813232421877	443.3347167968752	331.6659545898439	482.8742980957034	427.3328857421877	258.542938232422	441.5145568847659	312.5112915039064	44.60525131225587	454.610290527344	530.9859008789065	47.06294631958009	445.8918151855471	519.7149047851565	43.43863677978517	554.9448852539065	417.8381958007815	545.7991333007815	108.9707717895508	409.2244567871096	520.0351562500002	231.6602172851564	436.0625305175784	832.3723754882817	102.1312789916993	475.3294372558596	741.037780761719	105.5562286376954	411.1135253906252	660.130554199219	110.8180236816407	372.0042724609376	100.0394668579102	87.99512481689456	400.2041015625002	102.7635803222657	178.8138732910157	438.3411865234377	396.1343688964846	169.7880249023438	449.2973632812502	324.6744995117189	121.3016967773438	424.2342834472659	258.2620849609376	166.5826416015626	318.1149291992189	44.43264007568361	134.3071289062501	541.9204711914065	43.25265121459962	162.4823303222657	533.2043457031252	41.28354644775392	52.40105819702151	363.0847473144532	1543.854003906251	312.5169372558595	335.9942932128907	1271.4814453125	306.723602294922	498.7163696289065	1498.391235351563	307.3858642578126	566.478454589844	1315.857543945313	307.524139404297	363.9364318847657	1537.055664062501	483.4035949707034	356.492156982422	1539.759765625001	141.0429687500001	
4	0.012	522.1791992187502	1042.875732421875	405.6070556640627	516.1656494140627	1059.213012695313	188.6359100341797	344.8442993164064	1081.582397460938	356.5572814941407	344.4523925781251	1086.578125	260.9147338867189	448.7595520019534	1113.44482421875	457.3534240722659	455.3500671386721	1124.957763671875	159.7576599121094	418.9029235839846	551.816101074219	489.8397521972659	405.5080261230471	520.993103027344	369.2662048339845	441.5060729980471	805.7826538085942	500.961608886719	487.9492492675784	713.5170898437502	490.5389709472659	424.6561584472659	628.817565917969	491.7778930664065	366.6246032714845	96.30912780761724	507.3611755371096	396.3134765625002	105.5018844604493	417.0707702636721	434.9763183593752	397.2590637207034	426.984313964844	443.3286743164065	331.6639709472657	482.872253417969	427.3432312011721	258.4987792968751	441.5490417480471	312.5302124023439	44.62820053100587	454.6145019531252	530.9985961914065	47.08840560913087	445.8999938964846	519.7258300781252	43.4884605407715	554.966735839844	417.7834777832034	545.8033447265627	108.9740676879883	409.240905761719	520.0102539062502	231.660369873047	436.1149597167971	832.3821411132817	102.112159729004	475.3586120605471	741.0298461914065	105.5321578979493	411.1435546875002	660.1342773437502	110.7717056274415	372.0557861328126	100.0261230468751	88.03127288818362	400.219665527344	102.7481155395508	178.8290710449219	438.3501892089846	396.1365966796877	169.7778320312501	449.2961120605471	324.6057128906251	121.2852249145508	424.2388000488284	258.2565307617189	166.5801544189454	318.1146850585939	44.43879318237306	134.3131561279297	541.974060058594	43.30810546875001	162.4739227294922	533.1543579101565	41.29557418823244	52.37490844726565	363.0072631835939	1543.843994140626	312.4219360351564	336.0334777832032	1271.467041015625	306.7015991210939	498.7428283691409	1498.523315429688	307.339813232422	566.5214843750002	1315.980346679688	307.5115051269532	363.8903198242189	1537.135986328126	483.3073425292971	356.4595947265626	1539.743896484376	140.9597473144532	
5	0.016	522.1943969726565	1042.866577148438	405.5738525390627	516.2239379882815	1059.241455078125	188.6538696289063	344.5096740722657	1081.271240234375	356.6125793457032	344.4632263183595	1086.588989257813	260.8830566406251	448.7944641113284	1113.4521484375	457.3251647949221	455.3774108886721	1124.96826171875	159.7403869628907	418.7759094238284	551.5648193359377	489.9969787597659	405.5212707519534	520.996032714844	369.2597656250001	441.5187683105471	805.797973632813	500.9413146972659	488.0451354980471	713.5086669921877	490.5593261718752	424.6467590332034	628.8482055664065	491.7651062011721	366.7380676269532	96.27673339843756	507.1671142578127	396.294616699219	105.5252227783204	417.0555114746096	434.9693603515627	397.2385559082034	426.9878234863284	443.3142700195315	331.6667480468751	482.8706970214846	427.3479309082034	258.5340270996095	441.5439758300784	312.5489196777345	44.6051368713379	454.5572204589846	530.9520263671877	47.05846786499025	445.882995605469	519.7321777343752	43.45532226562501	554.9529418945315	417.8743286132815	545.768493652344	108.9347305297852	409.2776184082034	519.9819946289065	231.6760559082032	436.2119445800784	832.386352539063	102.0905761718751	475.4055175781252	741.0603027343752	105.5112609863282	411.209167480469	660.1484375000002	110.7600555419922	372.1215209960939	99.97769165039068	88.08720397949222	400.2122497558596	102.7664184570313	178.8493957519532	438.3299865722659	396.114929199219	169.7886505126954	449.2820739746096	324.6181640625001	121.263168334961	424.2475280761721	258.2684936523439	166.6157836914063	318.1330566406251	44.4417190551758	134.3042755126954	542.085388183594	43.31693649291994	162.5473175048829	533.1778564453127	41.29176712036134	52.38219070434573	362.8760681152345	1543.839599609376	312.3287353515626	336.0098876953126	1271.47021484375	306.6564941406251	498.7603759765627	1498.651000976563	307.3125000000001	566.5671386718752	1316.091430664063	307.5128479003907	363.8096008300782	1537.171875000001	483.2506408691409	356.399383544922	1539.727172851563	140.8722839355469	
